<svg width="151" height="47" viewBox="0 0 151 47" fill="none" xmlns="http://www.w3.org/2000/svg">
<path d="M1.20099 38.6103C1.10091 38.6103 1.00082 38.597 0.900742 38.5637C0.520429 38.4439 0.24687 38.1109 0.206837 37.718C0.200165 37.6381 0 35.8268 0 34.7346V7.02551C0 3.14983 3.15593 0 7.03913 0H27.7162C31.5994 0 34.7553 3.14983 34.7553 7.02551V26.5904C34.7553 30.4661 31.5994 33.6159 27.7162 33.6159H9.90149C7.58625 33.6159 5.33773 34.5682 3.73641 36.233L1.96162 38.2641C1.76812 38.4838 1.49456 38.6037 1.20766 38.6037L1.20099 38.6103ZM7.03913 1.99778C4.25684 1.99778 2.00165 4.25526 2.00165 7.02551V34.7346C2.00165 34.8678 2.00165 35.0143 2.00832 35.1675L2.25519 34.8878C4.27018 32.8035 7.0458 31.6248 9.89482 31.6248H27.7162C30.4985 31.6248 32.7536 29.3673 32.7536 26.597V7.02551C32.7536 4.2486 30.4918 1.99778 27.7162 1.99778H7.03913V1.99778Z" fill="#DE7773"/>
<path d="M13.351 40.6614L10.482 38.7901L7.07916 40.6614V33.0499H13.351V40.6614Z" fill="#DE7773"/>
<path d="M15.7663 46.1286H10.3085C4.62381 46.1286 0 42.0732 0 37.0854V34.7347C0 34.1819 0.447035 33.7358 1.00082 33.7358C1.55461 33.7358 2.00165 34.1819 2.00165 34.7347V37.0854C2.00165 40.9744 5.73139 44.1309 10.3085 44.1309H15.7663C19.9297 44.1309 23.3859 41.5204 23.9864 38.1309L18.9489 38.3506C18.3751 38.3706 17.9281 37.9444 17.9081 37.3984C17.8814 36.8456 18.3151 36.3795 18.8622 36.3595L25.0406 36.0932C25.3209 36.0798 25.5811 36.1797 25.7746 36.3728C25.9747 36.5593 26.0815 36.819 26.0815 37.092C26.0815 42.0798 21.4577 46.1353 15.773 46.1353L15.7663 46.1286Z" fill="#DE7773"/>
<path d="M6.09836 21.6293C5.54457 21.6293 5.09753 21.1831 5.09753 20.6304V10.3352C5.09753 7.77136 7.18592 5.68036 9.76138 5.68036H21.4643C22.0181 5.68036 22.4652 6.12653 22.4652 6.67925C22.4652 7.23196 22.0181 7.67813 21.4643 7.67813H9.76138C8.2935 7.67813 7.09918 8.87014 7.09918 10.3352V20.6304C7.09918 21.1831 6.65215 21.6293 6.09836 21.6293V21.6293Z" fill="#DE7773"/>
<path d="M51.9941 24.6498C51.6738 24.6498 51.427 24.5632 51.2602 24.3901C51.0867 24.2169 50.9999 23.9772 50.9999 23.6576V13.1559C50.9999 12.8363 51.0867 12.5899 51.2602 12.4234C51.4336 12.2503 51.6738 12.1637 51.9941 12.1637H58.4728C58.7196 12.1637 58.9131 12.2236 59.0399 12.3502C59.1667 12.4767 59.2334 12.6565 59.2334 12.8896C59.2334 13.1359 59.1667 13.3291 59.0399 13.4556C58.9065 13.5888 58.7196 13.6487 58.4728 13.6487H52.7747V17.5643H58.0791C58.3393 17.5643 58.5328 17.6309 58.6529 17.7575C58.7797 17.8907 58.8397 18.0705 58.8397 18.3035C58.8397 18.5499 58.7797 18.7364 58.6529 18.8629C58.5261 18.9894 58.3393 19.0494 58.0791 19.0494H52.7747V23.1581H58.4728C58.7196 23.1581 58.9131 23.2247 59.0399 23.3512C59.1733 23.4844 59.2334 23.6642 59.2334 23.8973C59.2334 24.1437 59.1667 24.3301 59.0399 24.4567C58.9131 24.5832 58.7196 24.6431 58.4728 24.6431H51.9941V24.6498Z" fill="#171B36"/>
<path d="M61.1283 24.7697C60.8947 24.7697 60.7013 24.7164 60.5611 24.6098C60.421 24.5033 60.3343 24.3634 60.3143 24.1836C60.2876 24.0038 60.3276 23.8041 60.421 23.5843L65.2317 12.8163C65.3518 12.53 65.4985 12.3302 65.6854 12.217C65.8655 12.0971 66.0723 12.0372 66.2992 12.0372C66.5127 12.0372 66.7129 12.0971 66.893 12.217C67.0732 12.3368 67.2266 12.5366 67.3467 12.8163L72.1574 23.5843C72.2641 23.8107 72.3041 24.0105 72.2841 24.197C72.2574 24.3834 72.184 24.5233 72.0506 24.6232C71.9172 24.723 71.737 24.7763 71.4968 24.7763C71.2366 24.7763 71.0298 24.7097 70.8763 24.5832C70.7228 24.4567 70.5894 24.2502 70.4693 23.9839L69.2283 21.1137L70.0623 21.6065H62.5027L63.3167 21.1137L62.0957 23.9839C61.9756 24.2702 61.8489 24.47 61.7087 24.5965C61.5686 24.723 61.3751 24.783 61.1416 24.783L61.1283 24.7697ZM66.2525 14.2014L63.5703 20.541L63.1299 20.1148H69.3951L68.9881 20.541L66.2925 14.2014H66.2592H66.2525Z" fill="#171B36"/>
<path d="M78.3024 24.8096C77.7553 24.8096 77.2282 24.7697 76.7078 24.6831C76.1873 24.6032 75.6936 24.4767 75.2332 24.3035C74.7728 24.1304 74.3592 23.924 73.9922 23.6776C73.8121 23.551 73.692 23.3979 73.6319 23.2314C73.5652 23.0649 73.5518 22.9051 73.5785 22.7453C73.6052 22.5854 73.6786 22.4456 73.7854 22.3324C73.8921 22.2125 74.0189 22.1393 74.1724 22.1126C74.3258 22.086 74.4993 22.1326 74.6861 22.2658C75.2199 22.6054 75.7803 22.8585 76.3742 23.0183C76.968 23.1781 77.6085 23.258 78.3091 23.258C79.3166 23.258 80.0572 23.0782 80.5376 22.7186C81.018 22.359 81.2582 21.8862 81.2582 21.3135C81.2582 20.8407 81.0847 20.4678 80.7444 20.1881C80.4042 19.9084 79.8303 19.6887 79.023 19.5222L77.1215 19.136C76.0005 18.9029 75.1598 18.51 74.6127 17.9706C74.0656 17.4312 73.7854 16.6987 73.7854 15.773C73.7854 15.2203 73.8988 14.7075 74.1323 14.2481C74.3658 13.7886 74.6861 13.389 75.0998 13.0561C75.5135 12.7164 76.0139 12.4634 76.5877 12.2836C77.1682 12.1038 77.802 12.0172 78.4892 12.0172C79.2232 12.0172 79.9104 12.1104 80.5576 12.3036C81.2048 12.49 81.7786 12.783 82.2857 13.1693C82.4392 13.2758 82.5459 13.409 82.5926 13.5688C82.646 13.7286 82.6593 13.8818 82.626 14.035C82.5993 14.1881 82.5259 14.3213 82.4191 14.4212C82.3124 14.5277 82.1789 14.5877 82.0121 14.6077C81.8453 14.6276 81.6652 14.5677 81.465 14.4412C81.0046 14.1349 80.5309 13.9151 80.0572 13.7753C79.5768 13.6421 79.0497 13.5688 78.4692 13.5688C77.8887 13.5688 77.3817 13.6554 76.9546 13.8352C76.521 14.015 76.194 14.2614 75.9605 14.581C75.727 14.9007 75.6135 15.2802 75.6135 15.7131C75.6135 16.2059 75.7737 16.6054 76.0939 16.8984C76.4142 17.1914 76.948 17.4179 77.6886 17.571L79.5701 17.9573C80.7511 18.2037 81.6318 18.5899 82.2123 19.1093C82.7928 19.6287 83.0797 20.3213 83.0797 21.1803C83.0797 21.7331 82.9663 22.2325 82.7461 22.6787C82.5192 23.1182 82.199 23.5044 81.7853 23.8174C81.3716 24.137 80.8712 24.3834 80.2841 24.5499C79.6969 24.7231 79.0364 24.8096 78.3091 24.8096H78.3024Z" fill="#171B36"/>
<path d="M88.7911 24.7697C88.4975 24.7697 88.2706 24.6897 88.1105 24.5233C87.9504 24.3568 87.8703 24.1237 87.8703 23.8174V18.2036L88.2773 19.3757L83.8937 13.3024C83.7603 13.1226 83.7069 12.9362 83.7136 12.7431C83.7202 12.5499 83.807 12.3835 83.9538 12.2503C84.1006 12.1171 84.3007 12.0438 84.5476 12.0438C84.7344 12.0438 84.9079 12.0904 85.068 12.1837C85.2281 12.2769 85.3749 12.4234 85.5217 12.6232L89.0379 17.4911H88.6109L92.1205 12.6232C92.2739 12.4101 92.4207 12.2636 92.5675 12.1704C92.7076 12.0838 92.8878 12.0372 93.1013 12.0372C93.3482 12.0372 93.5417 12.0971 93.6751 12.2236C93.8085 12.3502 93.8819 12.51 93.8886 12.7031C93.8886 12.8962 93.8219 13.1027 93.6684 13.3157L89.3249 19.369L89.6985 18.197V23.8107C89.6985 24.45 89.3982 24.7697 88.7911 24.7697V24.7697Z" fill="#171B36"/>
<path d="M102.831 24.6459C102.51 24.6459 102.263 24.5593 102.097 24.3862C101.923 24.213 101.836 23.9733 101.836 23.6537V13.152C101.836 12.8324 101.923 12.586 102.097 12.4195C102.27 12.2464 102.51 12.1598 102.831 12.1598H107.054C107.915 12.1598 108.655 12.293 109.263 12.546C109.87 12.8057 110.337 13.1787 110.664 13.6648C110.991 14.1509 111.151 14.7303 111.151 15.4162C111.151 16.1687 110.924 16.8079 110.477 17.3274C110.03 17.8468 109.416 18.1931 108.649 18.3729V18.1065C109.523 18.2264 110.21 18.5527 110.704 19.0921C111.204 19.6315 111.451 20.3307 111.451 21.1897C111.451 22.3018 111.084 23.1542 110.35 23.7469C109.616 24.3462 108.589 24.6392 107.261 24.6392H102.824L102.831 24.6459ZM103.611 17.6137H106.767C107.621 17.6137 108.262 17.4406 108.702 17.101C109.142 16.7613 109.356 16.2552 109.356 15.596C109.356 14.9367 109.136 14.4306 108.702 14.091C108.262 13.7513 107.621 13.5782 106.767 13.5782H103.611V17.6137ZM103.611 23.2275H107.054C107.941 23.2275 108.595 23.0543 109.022 22.708C109.449 22.3618 109.663 21.829 109.663 21.1231C109.663 20.4173 109.449 19.8912 109.022 19.5449C108.595 19.2053 107.941 19.0321 107.054 19.0321H103.611V23.2275V23.2275Z" fill="#171B36"/>
<path d="M119.364 24.8057C118.183 24.8057 117.149 24.546 116.268 24.0199C115.388 23.4939 114.707 22.748 114.227 21.7891C113.746 20.8302 113.506 19.6981 113.506 18.3995C113.506 17.4206 113.639 16.535 113.913 15.7492C114.187 14.9634 114.574 14.2908 115.081 13.7314C115.588 13.172 116.202 12.7458 116.922 12.4462C117.643 12.1532 118.457 12 119.351 12C120.545 12 121.579 12.2597 122.453 12.7791C123.327 13.2986 124.008 14.0377 124.482 14.99C124.962 15.9489 125.202 17.0743 125.202 18.3729C125.202 19.3518 125.069 20.2375 124.795 21.0299C124.522 21.8224 124.128 22.5016 123.614 23.0677C123.101 23.6337 122.48 24.0666 121.759 24.3596C121.039 24.6526 120.232 24.7991 119.344 24.7991L119.364 24.8057ZM119.364 23.2142C120.192 23.2142 120.899 23.0277 121.486 22.6481C122.073 22.2686 122.52 21.7225 122.834 21.0033C123.147 20.2841 123.307 19.4184 123.307 18.3995C123.307 16.8746 122.967 15.6959 122.28 14.8568C121.593 14.0178 120.625 13.5982 119.371 13.5982C118.543 13.5982 117.836 13.7847 117.249 14.1576C116.662 14.5305 116.215 15.0766 115.901 15.7958C115.588 16.515 115.428 17.3807 115.428 18.3995C115.428 19.9112 115.775 21.0899 116.468 21.9423C117.162 22.7946 118.13 23.2142 119.371 23.2142H119.364Z" fill="#171B36"/>
<path d="M133.116 24.8057C131.935 24.8057 130.9 24.546 130.02 24.0199C129.139 23.4939 128.458 22.748 127.978 21.7891C127.498 20.8302 127.257 19.6981 127.257 18.3995C127.257 17.4206 127.391 16.535 127.664 15.7492C127.938 14.9634 128.325 14.2908 128.832 13.7314C129.339 13.172 129.953 12.7458 130.674 12.4462C131.394 12.1532 132.208 12 133.102 12C134.296 12 135.331 12.2597 136.205 12.7791C137.079 13.2986 137.759 14.0377 138.233 14.99C138.713 15.9489 138.954 17.0743 138.954 18.3729C138.954 19.3518 138.82 20.2375 138.547 21.0299C138.273 21.8224 137.879 22.5016 137.366 23.0677C136.852 23.6337 136.231 24.0666 135.511 24.3596C134.79 24.6526 133.983 24.7991 133.095 24.7991L133.116 24.8057ZM133.116 23.2142C133.943 23.2142 134.65 23.0277 135.237 22.6481C135.824 22.2686 136.271 21.7225 136.585 21.0033C136.899 20.2841 137.059 19.4184 137.059 18.3995C137.059 16.8746 136.718 15.6959 136.031 14.8568C135.344 14.0178 134.377 13.5982 133.122 13.5982C132.295 13.5982 131.588 13.7847 131 14.1576C130.413 14.5305 129.966 15.0766 129.653 15.7958C129.339 16.515 129.179 17.3807 129.179 18.3995C129.179 19.9112 129.526 21.0899 130.22 21.9423C130.914 22.7946 131.881 23.2142 133.122 23.2142H133.116Z" fill="#171B36"/>
<path d="M142.356 24.7724C142.063 24.7724 141.829 24.6925 141.676 24.526C141.522 24.3595 141.436 24.1331 141.436 23.8335V12.9589C141.436 12.6526 141.516 12.4195 141.676 12.2663C141.836 12.1132 142.063 12.0333 142.356 12.0333C142.65 12.0333 142.877 12.1132 143.037 12.2663C143.197 12.4195 143.277 12.6526 143.277 12.9589V17.7735H143.311L148.755 12.5127C148.935 12.3462 149.102 12.2264 149.262 12.1465C149.422 12.0666 149.602 12.0333 149.803 12.0333C150.076 12.0333 150.27 12.0999 150.396 12.2397C150.523 12.3729 150.57 12.5394 150.55 12.7258C150.523 12.9123 150.423 13.0987 150.25 13.2719L144.592 18.6526L144.625 17.7469L150.516 23.4139C150.73 23.6137 150.843 23.8201 150.85 24.0332C150.863 24.2463 150.797 24.4195 150.657 24.5527C150.516 24.6858 150.316 24.7591 150.056 24.7591C149.823 24.7591 149.629 24.7125 149.489 24.6192C149.349 24.526 149.182 24.3862 148.989 24.213L143.311 18.8124H143.277V23.8268C143.277 24.1198 143.197 24.3529 143.044 24.5194C142.89 24.6858 142.657 24.7658 142.35 24.7658L142.356 24.7724Z" fill="#171B36"/>
</svg>
